<svg width="98" height="98" viewBox="0 0 98 98" fill="none" xmlns="http://www.w3.org/2000/svg">
<circle cx="49" cy="49" r="49" fill="#F5DDC4"/>
<path d="M29 39V34C29 32.6739 29.5268 31.4021 30.4645 30.4645C31.4021 29.5268 32.6739 29 34 29H39M29 59V64C29 65.3261 29.5268 66.5979 30.4645 67.5355C31.4021 68.4732 32.6739 69 34 69H39M59 29H64C65.3261 29 66.5979 29.5268 67.5355 30.4645C68.4732 31.4021 69 32.6739 69 34V39M59 69H64C65.3261 69 66.5979 68.4732 67.5355 67.5355C68.4732 66.5979 69 65.3261 69 64V59M41.5 49C41.5 50.9891 42.2902 52.8968 43.6967 54.3033C45.1032 55.7098 47.0109 56.5 49 56.5C50.9891 56.5 52.8968 55.7098 54.3033 54.3033C55.7098 52.8968 56.5 50.9891 56.5 49C56.5 47.0109 55.7098 45.1032 54.3033 43.6967C52.8968 42.2902 50.9891 41.5 49 41.5C47.0109 41.5 45.1032 42.2902 43.6967 43.6967C42.2902 45.1032 41.5 47.0109 41.5 49Z" stroke="#F48E28" stroke-width="5" stroke-linecap="round" stroke-linejoin="round"/>
</svg>
