<svg width="100" height="100" viewBox="0 0 100 100" fill="none" xmlns="http://www.w3.org/2000/svg">
<circle cx="50" cy="50" r="50" fill="#F5DDC4"/>
<path d="M60.0035 47.0005V47.0255M35.4373 40.4458C34.3408 39.6032 33.4987 38.4737 33.0041 37.1823C32.5094 35.891 32.3814 34.488 32.6342 33.1284C32.887 31.7689 33.5109 30.5057 34.4367 29.4785C35.3626 28.4513 36.5544 27.7001 37.8805 27.3079C39.2066 26.9157 40.6153 26.8978 41.9509 27.2562C43.2865 27.6146 44.4971 28.3352 45.4487 29.3386C46.4004 30.3419 47.0561 31.5888 47.3434 32.9415C47.6307 34.2942 47.5384 35.7 47.0766 37.0035" stroke="#F48E28" stroke-width="5" stroke-linecap="round" stroke-linejoin="round"/>
<path d="M62.5032 29.5015V39.0085C65.597 40.7987 67.9525 43.6318 69.1478 47.0005H72.5001C73.1631 47.0005 73.799 47.2639 74.2678 47.7327C74.7366 48.2015 75 48.8374 75 49.5004V54.5001C75 55.1631 74.7366 55.799 74.2678 56.2678C73.799 56.7366 73.1631 57 72.5001 57H69.1453C68.3054 59.3749 66.8779 61.4997 65.0005 63.1822V68.2494C65.0005 69.2439 64.6055 70.1977 63.9022 70.9009C63.199 71.6041 62.2452 71.9992 61.2507 71.9992C60.2562 71.9992 59.3025 71.6041 58.5992 70.9009C57.896 70.1977 57.5009 69.2439 57.5009 68.2494V66.792C56.6748 66.9303 55.8387 66.9997 55.0011 66.9994H45.0016C44.164 66.9997 43.3278 66.9303 42.5017 66.792V68.2494C42.5017 69.2439 42.1067 70.1977 41.4035 70.9009C40.7002 71.6041 39.7465 71.9992 38.7519 71.9992C37.7574 71.9992 36.8037 71.6041 36.1004 70.9009C35.3972 70.1977 35.0022 69.2439 35.0022 68.2494V63.1822C32.7372 61.1572 31.1405 58.4921 30.4236 55.5397C29.7067 52.5873 29.9032 49.4868 30.9872 46.6486C32.0712 43.8104 33.9916 41.3683 36.4942 39.6455C38.9967 37.9227 41.9634 37.0006 45.0016 37.0011H51.2513L62.5007 29.5015H62.5032Z" stroke="#F48E28" stroke-width="5" stroke-linecap="round" stroke-linejoin="round"/>
</svg>
