<svg width="100" height="100" viewBox="0 0 100 100" fill="none" xmlns="http://www.w3.org/2000/svg">
<circle cx="50" cy="50" r="50" fill="#F5DDC4"/>
<path d="M60.6667 30.4095C58.625 30.4095 56.9917 32.0476 56.9917 34.0952C56.9917 36.1429 58.625 37.781 60.6667 37.781C62.7083 37.781 64.3417 36.1429 64.3417 34.0952C64.3417 32.0476 62.7083 30.4095 60.6667 30.4095ZM53.3167 36.3476C52.3571 36.3476 51.4792 36.7367 50.8667 37.3714L43.3125 44.9271C42.6796 45.5619 42.2917 46.381 42.2917 47.4048C42.2917 48.6948 42.9654 49.78 44.0271 50.4148L50.8667 54.5714V64.8095H54.5417V51.5L49.9479 48.1214L54.6846 43.3095L58.2167 48.4286H66.7917V44.7429H60.2583L56.2975 38.0471C55.7054 37.0233 54.5417 36.3476 53.3167 36.3476ZM48.4167 34.0952H34.125C33.0021 34.0952 32.0833 33.1738 32.0833 32.0476C32.0833 30.9214 33.0021 30 34.125 30H54.1129C53.6842 30.6962 53.3371 31.4538 53.1533 32.2729C51.3975 32.3138 49.7438 32.969 48.4167 34.0952ZM38.2083 52.5238C32.5733 52.5238 28 57.1105 28 62.7619C28 68.4133 32.5733 73 38.2083 73C43.8433 73 48.4167 68.4133 48.4167 62.7619C48.4167 57.1105 43.8433 52.5238 38.2083 52.5238ZM38.2083 69.9286C34.2679 69.9286 31.0625 66.7138 31.0625 62.7619C31.0625 58.81 34.2679 55.5952 38.2083 55.5952C42.1488 55.5952 45.3542 58.81 45.3542 62.7619C45.3542 66.7138 42.1488 69.9286 38.2083 69.9286ZM66.7917 52.5238C61.1567 52.5238 56.5833 57.1105 56.5833 62.7619C56.5833 68.4133 61.1567 73 66.7917 73C72.4267 73 77 68.4133 77 62.7619C77 57.1105 72.4267 52.5238 66.7917 52.5238ZM66.7917 69.9286C62.8513 69.9286 59.6458 66.7138 59.6458 62.7619C59.6458 58.81 62.8513 55.5952 66.7917 55.5952C70.7321 55.5952 73.9375 58.81 73.9375 62.7619C73.9375 66.7138 70.7321 69.9286 66.7917 69.9286ZM38.8617 50.4762H30.0417C28.9147 50.4762 28 49.5548 28 48.4286C28 47.3024 28.9147 46.381 30.0417 46.381H38.3104C38.2696 46.7086 38.2083 47.0567 38.2083 47.4048C38.2083 48.49 38.4533 49.5343 38.8617 50.4762ZM40.25 42.2857H32.0833C30.9604 42.2857 30.0417 41.3643 30.0417 40.2381C30.0417 39.1119 30.9604 38.1905 32.0833 38.1905H44.2721L40.4338 42.0195C40.3521 42.1014 40.25 42.2038 40.25 42.2857Z" fill="#F48E28"/>
</svg>
